
<svg xmlns="http://www.w3.org/2000/svg" width="192" height="192" viewBox="0 0 192 192">
  <defs>
    <linearGradient id="adminGrad" x1="0%" y1="0%" x2="100%" y2="100%">
      <stop offset="0%" style="stop-color:#0093D2;stop-opacity:1" />
      <stop offset="100%" style="stop-color:#007AB8;stop-opacity:1" />
    </linearGradient>
  </defs>
  <rect width="192" height="192" rx="38.400000000000006" fill="url(#adminGrad)"/>
  <g transform="translate(38.400000000000006, 38.400000000000006)">
    <path d="M 57.599999999999994 9.600000000000001 L 96 28.799999999999997 L 57.599999999999994 48 L 57.599999999999994 105.60000000000001 C 57.599999999999994 115.19999999999999 67.19999999999999 115.19999999999999 76.80000000000001 115.19999999999999 L 115.19999999999999 115.19999999999999 C 124.80000000000001 115.19999999999999 134.39999999999998 115.19999999999999 134.39999999999998 105.60000000000001 L 134.39999999999998 48 L 96 28.799999999999997 L 134.39999999999998 9.600000000000001 Z" 
          fill="white" opacity="0.95"/>
    <circle cx="96" cy="76.80000000000001" r="15.36" fill="#0093D2"/>
    <path d="M 96 61.44 L 99.84 53.760000000000005 L 107.52000000000001 57.599999999999994 L 103.68 65.28 L 111.35999999999999 69.12 L 107.52000000000001 76.80000000000001 L 111.35999999999999 84.48 L 103.68 88.32000000000001 L 107.52000000000001 96 L 99.84 99.84 L 96 92.16 L 92.16 99.84 L 84.48 96 L 88.32000000000001 88.32000000000001 L 80.64 84.48 L 84.48 76.80000000000001 L 80.64 69.12 L 88.32000000000001 65.28 L 84.48 57.599999999999994 L 92.16 53.760000000000005 Z" 
          fill="#0093D2" opacity="0.8"/>
  </g>
</svg>
